<svg width="419" height="70" viewBox="0 0 419 70" fill="none" xmlns="http://www.w3.org/2000/svg">
<path d="M35 70C30.2167 70 25.6958 69.0812 21.4375 67.2438C17.1792 65.4062 13.4604 62.8979 10.2812 59.7188C7.10208 56.5396 4.59375 52.8208 2.75625 48.5625C0.91875 44.3042 0 39.7833 0 35C0 30.1583 0.91875 25.6229 2.75625 21.3938C4.59375 17.1646 7.10208 13.4604 10.2812 10.2812C13.4604 7.10208 17.1792 4.59375 21.4375 2.75625C25.6958 0.91875 30.2167 0 35 0C39.8417 0 44.3771 0.91875 48.6063 2.75625C52.8354 4.59375 56.5396 7.10208 59.7188 10.2812C62.8979 13.4604 65.4062 17.1646 67.2438 21.3938C69.0812 25.6229 70 30.1583 70 35C70 39.7833 69.0812 44.3042 67.2438 48.5625C65.4062 52.8208 62.8979 56.5396 59.7188 59.7188C56.5396 62.8979 52.8354 65.4062 48.6063 67.2438C44.3771 69.0812 39.8417 70 35 70ZM35 62.825C36.5167 60.725 37.8292 58.5375 38.9375 56.2625C40.0458 53.9875 40.95 51.5667 41.65 49H28.35C29.05 51.5667 29.9542 53.9875 31.0625 56.2625C32.1708 58.5375 33.4833 60.725 35 62.825ZM25.9 61.425C24.85 59.5 23.9313 57.5021 23.1438 55.4313C22.3563 53.3604 21.7 51.2167 21.175 49H10.85C12.5417 51.9167 14.6562 54.4542 17.1938 56.6125C19.7312 58.7708 22.6333 60.375 25.9 61.425ZM44.1 61.425C47.3667 60.375 50.2688 58.7708 52.8063 56.6125C55.3438 54.4542 57.4583 51.9167 59.15 49H48.825C48.3 51.2167 47.6437 53.3604 46.8563 55.4313C46.0687 57.5021 45.15 59.5 44.1 61.425ZM7.875 42H19.775C19.6 40.8333 19.4688 39.6812 19.3813 38.5438C19.2937 37.4062 19.25 36.225 19.25 35C19.25 33.775 19.2937 32.5938 19.3813 31.4563C19.4688 30.3188 19.6 29.1667 19.775 28H7.875C7.58333 29.1667 7.36458 30.3188 7.21875 31.4563C7.07292 32.5938 7 33.775 7 35C7 36.225 7.07292 37.4062 7.21875 38.5438C7.36458 39.6812 7.58333 40.8333 7.875 42ZM26.775 42H43.225C43.4 40.8333 43.5313 39.6812 43.6188 38.5438C43.7063 37.4062 43.75 36.225 43.75 35C43.75 33.775 43.7063 32.5938 43.6188 31.4563C43.5313 30.3188 43.4 29.1667 43.225 28H26.775C26.6 29.1667 26.4688 30.3188 26.3813 31.4563C26.2937 32.5938 26.25 33.775 26.25 35C26.25 36.225 26.2937 37.4062 26.3813 38.5438C26.4688 39.6812 26.6 40.8333 26.775 42ZM50.225 42H62.125C62.4167 40.8333 62.6354 39.6812 62.7812 38.5438C62.9271 37.4062 63 36.225 63 35C63 33.775 62.9271 32.5938 62.7812 31.4563C62.6354 30.3188 62.4167 29.1667 62.125 28H50.225C50.4 29.1667 50.5313 30.3188 50.6188 31.4563C50.7063 32.5938 50.75 33.775 50.75 35C50.75 36.225 50.7063 37.4062 50.6188 38.5438C50.5313 39.6812 50.4 40.8333 50.225 42ZM48.825 21H59.15C57.4583 18.0833 55.3438 15.5458 52.8063 13.3875C50.2688 11.2292 47.3667 9.625 44.1 8.575C45.15 10.5 46.0687 12.4979 46.8563 14.5687C47.6437 16.6396 48.3 18.7833 48.825 21ZM28.35 21H41.65C40.95 18.4333 40.0458 16.0125 38.9375 13.7375C37.8292 11.4625 36.5167 9.275 35 7.175C33.4833 9.275 32.1708 11.4625 31.0625 13.7375C29.9542 16.0125 29.05 18.4333 28.35 21ZM10.85 21H21.175C21.7 18.7833 22.3563 16.6396 23.1438 14.5687C23.9313 12.4979 24.85 10.5 25.9 8.575C22.6333 9.625 19.7312 11.2292 17.1938 13.3875C14.6562 15.5458 12.5417 18.0833 10.85 21Z" fill="#4B0082"/>
<path d="M403.647 42.7389H401.087V49.5833H391.647V22.3611H405.127C407.714 22.3611 409.967 22.7759 411.887 23.6055C413.807 24.4352 415.287 25.6278 416.327 27.1833C417.367 28.7389 417.887 30.5537 417.887 32.6278C417.887 34.5722 417.434 36.2703 416.527 37.7222C415.621 39.174 414.314 40.3278 412.607 41.1833L418.487 49.5833H408.407L403.647 42.7389ZM408.367 32.6278C408.367 31.6166 408.047 30.8389 407.407 30.2944C406.767 29.724 405.807 29.4389 404.527 29.4389H401.087V35.8166H404.527C405.807 35.8166 406.767 35.5444 407.407 35C408.047 34.4296 408.367 33.6389 408.367 32.6278Z" fill="#0B0B0B"/>
<path d="M370.821 50.2056C367.808 50.2056 365.101 49.5963 362.701 48.3778C360.301 47.1593 358.421 45.4741 357.061 43.3222C355.701 41.1444 355.021 38.6944 355.021 35.9722C355.021 33.25 355.701 30.813 357.061 28.6611C358.421 26.4833 360.301 24.7852 362.701 23.5667C365.101 22.3482 367.808 21.7389 370.821 21.7389C373.834 21.7389 376.541 22.3482 378.941 23.5667C381.341 24.7852 383.221 26.4833 384.581 28.6611C385.941 30.813 386.621 33.25 386.621 35.9722C386.621 38.6944 385.941 41.1444 384.581 43.3222C383.221 45.4741 381.341 47.1593 378.941 48.3778C376.541 49.5963 373.834 50.2056 370.821 50.2056ZM370.821 42.7778C371.994 42.7778 373.048 42.5056 373.981 41.9611C374.941 41.3907 375.701 40.6 376.261 39.5889C376.821 38.5519 377.101 37.3463 377.101 35.9722C377.101 34.5982 376.821 33.4056 376.261 32.3944C375.701 31.3574 374.941 30.5667 373.981 30.0222C373.048 29.4519 371.994 29.1667 370.821 29.1667C369.648 29.1667 368.581 29.4519 367.621 30.0222C366.688 30.5667 365.941 31.3574 365.381 32.3944C364.821 33.4056 364.541 34.5982 364.541 35.9722C364.541 37.3463 364.821 38.5519 365.381 39.5889C365.941 40.6 366.688 41.3907 367.621 41.9611C368.581 42.5056 369.648 42.7778 370.821 42.7778Z" fill="#0B0B0B"/>
<path d="M334.84 29.4778H326.64V22.3611H352.48V29.4778H344.28V49.5833H334.84V29.4778Z" fill="#0B0B0B"/>
<path d="M313.175 22.3611H322.615V49.5833H313.175V22.3611Z" fill="#0B0B0B"/>
<path d="M307.027 22.3611V49.5833H299.267L288.627 37.2166V49.5833H279.427V22.3611H287.187L297.827 34.7278V22.3611H307.027Z" fill="#0B0B0B"/>
<path d="M258.601 50.2056C255.587 50.2056 252.881 49.5963 250.481 48.3778C248.081 47.1593 246.201 45.4741 244.841 43.3222C243.481 41.1444 242.801 38.6944 242.801 35.9722C242.801 33.25 243.481 30.813 244.841 28.6611C246.201 26.4833 248.081 24.7852 250.481 23.5667C252.881 22.3482 255.587 21.7389 258.601 21.7389C261.614 21.7389 264.321 22.3482 266.721 23.5667C269.121 24.7852 271.001 26.4833 272.361 28.6611C273.721 30.813 274.401 33.25 274.401 35.9722C274.401 38.6944 273.721 41.1444 272.361 43.3222C271.001 45.4741 269.121 47.1593 266.721 48.3778C264.321 49.5963 261.614 50.2056 258.601 50.2056ZM258.601 42.7778C259.774 42.7778 260.827 42.5056 261.761 41.9611C262.721 41.3907 263.481 40.6 264.041 39.5889C264.601 38.5519 264.881 37.3463 264.881 35.9722C264.881 34.5982 264.601 33.4056 264.041 32.3944C263.481 31.3574 262.721 30.5667 261.761 30.0222C260.827 29.4519 259.774 29.1667 258.601 29.1667C257.427 29.1667 256.361 29.4519 255.401 30.0222C254.467 30.5667 253.721 31.3574 253.161 32.3944C252.601 33.4056 252.321 34.5982 252.321 35.9722C252.321 37.3463 252.601 38.5519 253.161 39.5889C253.721 40.6 254.467 41.3907 255.401 41.9611C256.361 42.5056 257.427 42.7778 258.601 42.7778Z" fill="#0B0B0B"/>
<path d="M229.157 49.5833L229.076 37.1778L222.996 47.1333H218.836L212.756 37.6055V49.5833H204.156V22.3611H211.916L221.036 36.8666L229.916 22.3611H237.676L237.756 49.5833H229.157Z" fill="#0B0B0B"/>
<path d="M173.115 50.2056C170.795 50.2056 168.529 49.9593 166.315 49.4667C164.129 48.9482 162.329 48.2611 160.915 47.4056L163.955 40.7167C165.289 41.4685 166.782 42.0778 168.435 42.5444C170.089 42.9852 171.675 43.2056 173.195 43.2056C174.502 43.2056 175.435 43.0889 175.995 42.8556C176.555 42.5963 176.835 42.2204 176.835 41.7278C176.835 41.1574 176.462 40.7296 175.715 40.4444C174.995 40.1593 173.795 39.8482 172.115 39.5111C169.955 39.0704 168.155 38.6037 166.715 38.1111C165.275 37.5926 164.022 36.763 162.955 35.6222C161.889 34.4556 161.355 32.887 161.355 30.9167C161.355 29.2056 161.849 27.65 162.835 26.25C163.822 24.85 165.289 23.7482 167.235 22.9444C169.209 22.1407 171.595 21.7389 174.395 21.7389C176.315 21.7389 178.195 21.9463 180.035 22.3611C181.902 22.75 183.542 23.3333 184.955 24.1111L182.115 30.7611C179.369 29.413 176.769 28.7389 174.315 28.7389C171.889 28.7389 170.675 29.3093 170.675 30.45C170.675 30.9944 171.035 31.4093 171.755 31.6944C172.475 31.9537 173.662 32.2389 175.315 32.55C177.449 32.9389 179.249 33.3926 180.715 33.9111C182.182 34.4037 183.449 35.2204 184.515 36.3611C185.609 37.5019 186.155 39.0574 186.155 41.0278C186.155 42.7389 185.662 44.2944 184.675 45.6944C183.689 47.0685 182.209 48.1704 180.235 49C178.289 49.8037 175.915 50.2056 173.115 50.2056Z" fill="#0B0B0B"/>
<path d="M156.527 22.3611V49.5833H148.767L138.127 37.2166V49.5833H128.927V22.3611H136.687L147.327 34.7278V22.3611H156.527Z" fill="#0B0B0B"/>
<path d="M94.28 22.3611H108.08C111.2 22.3611 113.947 22.9185 116.32 24.0333C118.72 25.1222 120.573 26.6907 121.88 28.7389C123.213 30.787 123.88 33.1981 123.88 35.9722C123.88 38.7463 123.213 41.1574 121.88 43.2055C120.573 45.2537 118.72 46.8352 116.32 47.95C113.947 49.0389 111.2 49.5833 108.08 49.5833H94.28V22.3611ZM107.68 42.4278C109.707 42.4278 111.32 41.8703 112.52 40.7555C113.747 39.6148 114.36 38.0203 114.36 35.9722C114.36 33.924 113.747 32.3426 112.52 31.2278C111.32 30.087 109.707 29.5166 107.68 29.5166H103.72V42.4278H107.68Z" fill="#0B0B0B"/>
</svg>
