<svg width="18" height="19" viewBox="0 0 18 19" fill="none" xmlns="http://www.w3.org/2000/svg">
<path d="M8.89944 18.3684C6.43575 18.3684 4.33659 17.4913 2.60196 15.7371C0.867319 13.9828 0 11.8599 0 9.36841C0 6.87688 0.867319 4.754 2.60196 2.99976C4.33659 1.24553 6.43575 0.368408 8.89944 0.368408C10.2067 0.368408 11.4427 0.635357 12.6075 1.16926C13.0685 1.38055 13.5026 1.62967 13.9098 1.91662C14.5391 2.36015 15.5866 1.95481 15.5866 1.18489C15.5866 0.733958 15.9521 0.368408 16.4031 0.368408H16.7933C17.4597 0.368408 18 0.908668 18 1.57511V4.58477C18 6.87567 16.1429 8.73281 13.852 8.73281H10.9115C10.2446 8.73281 9.70391 8.19214 9.70391 7.52519C9.70391 6.85823 10.2446 6.31756 10.9115 6.31756H11.15C12.2895 6.31756 12.9044 5.0796 11.9453 4.46428C11.8618 4.41072 11.7767 4.35898 11.6899 4.30909C10.8352 3.81756 9.90503 3.5718 8.89944 3.5718C7.30726 3.5718 5.95391 4.13536 4.83939 5.26248C3.72486 6.38959 3.1676 7.75824 3.1676 9.36841C3.1676 10.9786 3.72486 12.3472 4.83939 13.4743C5.95391 14.6015 7.30726 15.165 8.89944 15.165C10.0894 15.165 11.1746 14.8176 12.155 14.1226C12.8144 13.6553 13.3507 13.092 13.7637 12.433C14.1332 11.8433 14.7376 11.4023 15.4335 11.4023C16.5245 11.4023 17.3364 12.4341 16.8521 13.4117C16.281 14.5647 15.4736 15.5644 14.4302 16.4108C12.8212 17.7159 10.9777 18.3684 8.89944 18.3684Z" fill="#1C1B1F"/>
</svg>
