<svg width="32" height="32" viewBox="0 0 32 32" fill="none" xmlns="http://www.w3.org/2000/svg">
<path d="M16 24C16.4533 24 16.8333 23.8467 17.14 23.54C17.4467 23.2333 17.6 22.8533 17.6 22.4C17.6 21.9467 17.4467 21.5667 17.14 21.26C16.8333 20.9533 16.4533 20.8 16 20.8C15.5467 20.8 15.1667 20.9533 14.86 21.26C14.5533 21.5667 14.4 21.9467 14.4 22.4C14.4 22.8533 14.5533 23.2333 14.86 23.54C15.1667 23.8467 15.5467 24 16 24ZM14.4 17.6H17.6V8H14.4V17.6ZM16 32C13.7867 32 11.7067 31.58 9.76 30.74C7.81333 29.9 6.12 28.76 4.68 27.32C3.24 25.88 2.1 24.1867 1.26 22.24C0.42 20.2933 0 18.2133 0 16C0 13.7867 0.42 11.7067 1.26 9.76C2.1 7.81333 3.24 6.12 4.68 4.68C6.12 3.24 7.81333 2.1 9.76 1.26C11.7067 0.42 13.7867 0 16 0C18.2133 0 20.2933 0.42 22.24 1.26C24.1867 2.1 25.88 3.24 27.32 4.68C28.76 6.12 29.9 7.81333 30.74 9.76C31.58 11.7067 32 13.7867 32 16C32 18.2133 31.58 20.2933 30.74 22.24C29.9 24.1867 28.76 25.88 27.32 27.32C25.88 28.76 24.1867 29.9 22.24 30.74C20.2933 31.58 18.2133 32 16 32ZM16 28.8C19.5733 28.8 22.6 27.56 25.08 25.08C27.56 22.6 28.8 19.5733 28.8 16C28.8 12.4267 27.56 9.4 25.08 6.92C22.6 4.44 19.5733 3.2 16 3.2C12.4267 3.2 9.4 4.44 6.92 6.92C4.44 9.4 3.2 12.4267 3.2 16C3.2 19.5733 4.44 22.6 6.92 25.08C9.4 27.56 12.4267 28.8 16 28.8Z" fill="#DC143C"/>
</svg>
